<svg width="37" height="37" viewBox="0 0 37 37" fill="none" xmlns="http://www.w3.org/2000/svg">
<g clip-path="url(#clip0_1_50)">
<path d="M36.595 3.60156V20.4766C36.595 22.2344 35.1888 23.6406 33.4309 23.6406H32.3763V21.5312H33.4309C33.9934 21.5312 34.4856 21.0391 34.4856 20.4766V3.60156C34.4856 3.03906 33.9934 2.54688 33.4309 2.54688H3.75906C3.19656 2.54688 2.70438 3.03906 2.70438 3.60156V20.4766C2.70438 21.0391 3.19656 21.5312 3.75906 21.5312H6.92313V27.6484L10.72 24.3438L12.1263 25.9609L4.81375 32.3594V23.6406H3.75906C2.00125 23.6406 0.595001 22.2344 0.595001 20.4766V3.60156C0.595001 1.84375 2.00125 0.4375 3.75906 0.4375H33.4309C35.1888 0.4375 36.595 1.84375 36.595 3.60156ZM30.2669 20.6172V27.0859C30.2669 28.8438 28.8606 30.25 27.1028 30.25H26.0481V36.7188L18.3138 30.25H16.4856C14.7278 30.25 13.3216 28.8438 13.3216 27.0859V20.6172C13.3216 18.8594 14.7278 17.4531 16.4856 17.4531H27.1028C28.8606 17.4531 30.2669 18.8594 30.2669 20.6172ZM28.1575 20.6172C28.1575 20.0547 27.6653 19.5625 27.1028 19.5625H16.4856C15.9231 19.5625 15.4309 20.0547 15.4309 20.6172V27.0859C15.4309 27.6484 15.9231 28.1406 16.4856 28.1406H19.0872L23.9388 32.2188V28.1406H27.1028C27.6653 28.1406 28.1575 27.6484 28.1575 27.0859V20.6172Z" fill="white"/>
</g>
<defs>
<clipPath id="clip0_1_50">
<rect width="35.81" height="36" fill="white" transform="matrix(1 0 0 -1 0.589996 36.7188)"/>
</clipPath>
</defs>
</svg>
