<svg width="16" height="36" viewBox="0 0 16 36" fill="none" xmlns="http://www.w3.org/2000/svg">
<path d="M12.6888 20.25C12.6184 20.25 12.6184 20.1797 12.5481 20.1797L9.0325 17.5078V5.41406C11.4231 5.83594 13.2513 7.875 13.2513 10.2656L14.3059 10.4062L15.3606 10.2656C15.3606 6.67969 12.6184 3.79688 9.0325 3.30469V0H6.92313V3.30469C3.33719 3.79688 0.595001 6.67969 0.595001 10.2656C0.595001 12.2344 1.43875 14.1328 2.98563 15.4688V15.5391H3.05594L6.92313 18.4922V30.5859C4.5325 30.1641 2.70438 28.125 2.70438 25.7344H0.595001C0.595001 29.3203 3.33719 32.2031 6.92313 32.6953V36H9.0325V32.6953C12.6184 32.2031 15.3606 29.3203 15.3606 25.7344C15.3606 23.625 14.3763 21.6562 12.6888 20.25ZM4.39188 13.9219C3.33719 13.0078 2.70438 11.6719 2.70438 10.2656C2.70438 7.875 4.5325 5.83594 6.92313 5.41406V15.8203L4.39188 13.9219ZM9.0325 30.5859V20.1797L11.3528 21.9375C12.5481 22.9219 13.2513 24.2578 13.2513 25.7344C13.2513 28.125 11.4231 30.1641 9.0325 30.5859Z" fill="white"/>
</svg>
