<svg width="17" height="18" viewBox="0 0 17 18" fill="none" xmlns="http://www.w3.org/2000/svg">
<g clip-path="url(#clip0_1_232)">
<path d="M8.50427 0.300293C3.82263 0.300293 0.00427246 4.11865 0.00427246 8.80029C0.00427246 13.4819 3.82263 17.3003 8.50427 17.3003C13.2191 17.3003 17.0043 13.4819 17.0043 8.80029C17.0043 4.11865 13.2191 0.300293 8.50427 0.300293ZM1.03357 9.29834H3.98865C4.02185 10.3276 4.18787 11.3237 4.48669 12.2866H1.89685C1.3988 11.3901 1.09998 10.3608 1.03357 9.29834ZM3.98865 8.30225H1.03357C1.09998 7.23975 1.3988 6.21045 1.89685 5.31396H4.48669C4.18787 6.27686 4.02185 7.27295 3.98865 8.30225ZM5.54919 5.31396H11.4594C11.7914 6.27686 11.9574 7.27295 12.0238 8.30225H4.98474C5.01794 7.27295 5.21716 6.27686 5.54919 5.31396ZM4.98474 9.29834H12.0238C11.9574 10.3276 11.7914 11.3237 11.4594 12.2866H5.54919C5.21716 11.3237 5.01794 10.3276 4.98474 9.29834ZM13.0199 9.29834H16.0082C15.9086 10.3608 15.6429 11.3901 15.1449 12.2866H12.4886C12.8207 11.3237 12.9867 10.3276 13.0199 9.29834ZM13.0199 8.30225C12.9867 7.27295 12.8207 6.27686 12.5219 5.31396H15.1449C15.6429 6.21045 15.9086 7.23975 16.0082 8.30225H13.0199ZM14.514 4.28467H12.1566C11.7582 3.35498 11.2269 2.4585 10.5961 1.59521C12.1898 2.06006 13.5511 3.02295 14.514 4.28467ZM9.06873 1.32959C9.8988 2.22607 10.5629 3.22217 11.0609 4.28467H5.94763C6.44568 3.22217 7.10974 2.22607 7.90662 1.32959C8.10583 1.32959 8.30505 1.29639 8.50427 1.29639C8.70349 1.29639 8.90271 1.32959 9.06873 1.32959ZM6.37927 1.62842C5.74841 2.4585 5.25037 3.35498 4.85193 4.28467H2.52771C3.4906 3.02295 4.81873 2.06006 6.37927 1.62842ZM2.52771 13.3159H4.85193C5.25037 14.2456 5.78162 15.1421 6.41248 16.0054C4.85193 15.5405 3.4906 14.5776 2.52771 13.3159ZM7.93982 16.271C7.10974 15.3745 6.44568 14.3784 5.94763 13.3159H11.0609C10.5629 14.3784 9.8988 15.3745 9.06873 16.271C8.90271 16.271 8.70349 16.3042 8.50427 16.3042C8.30505 16.3042 8.13904 16.271 7.93982 16.271ZM10.5961 16.0054C11.2269 15.1753 11.7582 14.2456 12.1566 13.3159H14.514C13.5511 14.5776 12.1898 15.5405 10.5961 16.0054Z" fill="#F8B864"/>
</g>
<defs>
<clipPath id="clip0_1_232">
<rect width="16.81" height="17" fill="white" transform="matrix(1 0 0 -1 -0.000732422 17.3003)"/>
</clipPath>
</defs>
</svg>
