<svg width="15" height="18" viewBox="0 0 15 18" fill="none" xmlns="http://www.w3.org/2000/svg">
<g clip-path="url(#clip0_1_203)">
<path d="M9.19707 10.7173C9.19707 10.7173 9.31565 10.5987 9.55281 10.3615C9.78998 10.1243 9.90856 9.67056 9.90856 9.00017C9.90856 8.32979 9.6714 7.75743 9.19707 7.2831C8.72273 6.80877 8.15038 6.5716 7.47999 6.5716C6.8096 6.5716 6.23724 6.80877 5.76291 7.2831C5.28858 7.75743 5.05142 8.32979 5.05142 9.00017C5.05142 9.67056 5.28858 10.2429 5.76291 10.7173C6.23724 11.1916 6.8096 11.4287 7.47999 11.4287C8.15038 11.4287 8.72273 11.1916 9.19707 10.7173ZM10.1268 6.35341C10.1268 6.35341 10.3086 6.53524 10.6722 6.89889C11.0359 7.26254 11.2177 7.96297 11.2177 9.00017C11.2177 10.0374 10.8541 10.9196 10.1268 11.6469C9.39945 12.3742 8.51719 12.7379 7.47999 12.7379C6.44279 12.7379 5.56053 12.3742 4.83323 11.6469C4.10592 10.9196 3.74227 10.0374 3.74227 9.00017C3.74227 7.96297 4.10592 7.08072 4.83323 6.35341C5.56053 5.6261 6.44279 5.26245 7.47999 5.26245C8.51719 5.26245 9.39945 5.6261 10.1268 6.35341ZM11.9861 4.49404C11.9861 4.49404 12.0288 4.53673 12.1142 4.62211C12.1996 4.70748 12.2423 4.87034 12.2423 5.11067C12.2423 5.35099 12.1569 5.55654 11.9861 5.72729C11.8154 5.89805 11.6098 5.98343 11.3695 5.98343C11.1292 5.98343 10.9236 5.89805 10.7529 5.72729C10.5821 5.55654 10.4967 5.35099 10.4967 5.11067C10.4967 4.87034 10.5821 4.66479 10.7529 4.49404C10.9236 4.32328 11.1292 4.2379 11.3695 4.2379C11.6098 4.2379 11.8154 4.32328 11.9861 4.49404ZM8.20571 3.01887C8.20571 3.01887 8.09583 3.01966 7.87606 3.02124C7.65628 3.02282 7.52426 3.02361 7.47999 3.02361C7.43572 3.02361 7.19381 3.02203 6.75426 3.01887C6.31472 3.01571 5.98111 3.01571 5.75343 3.01887C5.52575 3.02203 5.2206 3.03152 4.83797 3.04733C4.45534 3.06314 4.12964 3.09476 3.86085 3.14219C3.59206 3.18963 3.36596 3.24813 3.18256 3.3177C2.86634 3.44418 2.58806 3.62759 2.34773 3.86792C2.10741 4.10825 1.924 4.38652 1.79751 4.70274C1.72794 4.88615 1.66944 5.11225 1.62201 5.38103C1.57458 5.64982 1.54295 5.97553 1.52714 6.35815C1.51133 6.74078 1.50185 7.04593 1.49868 7.27361C1.49552 7.50129 1.49552 7.8349 1.49868 8.27445C1.50185 8.71399 1.50343 8.9559 1.50343 9.00017C1.50343 9.04445 1.50185 9.28635 1.49868 9.7259C1.49552 10.1654 1.49552 10.4991 1.49868 10.7267C1.50185 10.9544 1.51133 11.2596 1.52714 11.6422C1.54295 12.0248 1.57458 12.3505 1.62201 12.6193C1.66944 12.8881 1.72794 13.1142 1.79751 13.2976C1.924 13.6138 2.10741 13.8921 2.34773 14.1324C2.58806 14.3728 2.86634 14.5562 3.18256 14.6827C3.36596 14.7522 3.59206 14.8107 3.86085 14.8582C4.12964 14.9056 4.45534 14.9372 4.83797 14.953C5.2206 14.9688 5.52575 14.9783 5.75343 14.9815C5.98111 14.9846 6.31472 14.9846 6.75426 14.9815C7.19381 14.9783 7.43572 14.9767 7.47999 14.9767C7.52426 14.9767 7.76617 14.9783 8.20571 14.9815C8.64526 14.9846 8.97887 14.9846 9.20655 14.9815C9.43423 14.9783 9.73938 14.9688 10.122 14.953C10.5046 14.9372 10.8303 14.9056 11.0991 14.8582C11.3679 14.8107 11.594 14.7522 11.7774 14.6827C12.0936 14.5562 12.3719 14.3728 12.6122 14.1324C12.8526 13.8921 13.036 13.6138 13.1625 13.2976C13.232 13.1142 13.2905 12.8881 13.338 12.6193C13.3854 12.3505 13.417 12.0248 13.4328 11.6422C13.4486 11.2596 13.4581 10.9544 13.4613 10.7267C13.4645 10.4991 13.4645 10.1654 13.4613 9.7259C13.4581 9.28635 13.4566 9.04445 13.4566 9.00017C13.4566 8.9559 13.4581 8.71399 13.4613 8.27445C13.4645 7.8349 13.4645 7.50129 13.4613 7.27361C13.4581 7.04593 13.4486 6.74078 13.4328 6.35815C13.417 5.97553 13.3854 5.64982 13.338 5.38103C13.2905 5.11225 13.232 4.88615 13.1625 4.70274C13.036 4.38652 12.8526 4.10825 12.6122 3.86792C12.3719 3.62759 12.0936 3.44418 11.7774 3.3177C11.594 3.24813 11.3679 3.18963 11.0991 3.14219C10.8303 3.09476 10.5046 3.06314 10.122 3.04733C9.73938 3.03152 9.43423 3.02203 9.20655 3.01887C8.97887 3.01571 8.64526 3.01571 8.20571 3.01887ZM14.7183 5.99292C14.7499 6.54947 14.7657 7.55189 14.7657 9.00017C14.7657 10.4485 14.7499 11.4509 14.7183 12.0074C14.655 13.3229 14.2629 14.3411 13.5419 15.0621C12.8209 15.7831 11.8027 16.1752 10.4872 16.2385C9.9307 16.2701 8.92828 16.2859 7.47999 16.2859C6.0317 16.2859 5.02928 16.2701 4.47273 16.2385C3.15726 16.1752 2.13903 15.7831 1.41805 15.0621C0.697065 14.3411 0.304952 13.3229 0.241708 12.0074C0.210086 11.4509 0.194275 10.4485 0.194275 9.00017C0.194275 7.55189 0.210086 6.54947 0.241708 5.99292C0.304952 4.67744 0.697065 3.65921 1.41805 2.93823C2.13903 2.21725 3.15726 1.82514 4.47273 1.76189C5.02928 1.73027 6.0317 1.71446 7.47999 1.71446C8.92828 1.71446 9.9307 1.73027 10.4872 1.76189C11.8027 1.82514 12.8209 2.21725 13.5419 2.93823C14.2629 3.65921 14.655 4.67744 14.7183 5.99292Z" fill="#F8B864"/>
</g>
<defs>
<clipPath id="clip0_1_203">
<rect width="14.38" height="17" fill="white" transform="matrix(1 0 0 -1 0.190002 17.5002)"/>
</clipPath>
</defs>
</svg>
