<svg width="15" height="18" viewBox="0 0 15 18" fill="none" xmlns="http://www.w3.org/2000/svg">
<g clip-path="url(#clip0_1_205)">
<path d="M3.7851 6.42934V15.8306H0.654519V6.42934H3.7851ZM3.98432 3.52644C3.99064 3.98812 3.83095 4.37391 3.50524 4.6838C3.17954 4.9937 2.75106 5.14865 2.21981 5.14865H2.20084C1.68223 5.14865 1.26482 4.9937 0.948604 4.6838C0.632384 4.37391 0.474274 3.98812 0.474274 3.52644C0.474274 3.05843 0.637127 2.67106 0.962834 2.36433C1.28854 2.05759 1.71386 1.90423 2.23878 1.90423C2.76371 1.90423 3.18428 2.05759 3.5005 2.36433C3.81672 2.67106 3.97799 3.05843 3.98432 3.52644ZM15.0457 10.4422V15.8306H11.9246V10.8027C11.9246 10.1386 11.7965 9.61842 11.5404 9.24212C11.2843 8.86582 10.8842 8.67766 10.3403 8.67766C9.94191 8.67766 9.6083 8.78676 9.33951 9.00495C9.07072 9.22314 8.86992 9.49351 8.73711 9.81606C8.66754 10.0058 8.63276 10.2619 8.63276 10.5845V15.8306H5.51166C5.52431 13.3071 5.53064 11.2612 5.53064 9.69273C5.53064 8.12428 5.52747 7.18827 5.52115 6.8847L5.51166 6.42934H8.63276V7.79541H8.61378C8.74027 7.59303 8.86992 7.41595 9.00273 7.26416C9.13555 7.11237 9.31421 6.94794 9.53873 6.77086C9.76324 6.59377 10.0384 6.45622 10.3641 6.35819C10.6898 6.26016 11.0518 6.21115 11.4503 6.21115C12.5318 6.21115 13.4014 6.57006 14.0591 7.28788C14.7168 8.0057 15.0457 9.05713 15.0457 10.4422Z" fill="#F8B864"/>
</g>
<defs>
<clipPath id="clip0_1_205">
<rect width="14.38" height="17" fill="white" transform="matrix(1 0 0 -1 0.470001 17.5002)"/>
</clipPath>
</defs>
</svg>
