<svg width="17" height="18" viewBox="0 0 17 18" fill="none" xmlns="http://www.w3.org/2000/svg">
<g clip-path="url(#clip0_1_236)">
<path d="M5.51599 0.79834C2.49451 0.79834 0.00427246 3.25537 0.00427246 6.31006C0.00427246 10.6597 4.91833 16.3706 5.15076 16.6362L5.51599 17.0679L5.88123 16.6362C6.11365 16.3706 11.0277 10.6597 11.0277 6.31006C11.0277 3.25537 8.53748 0.79834 5.51599 0.79834ZM5.51599 15.5073C4.35388 14.0796 1.00037 9.63037 1.00037 6.31006C1.00037 3.81982 3.02576 1.79443 5.51599 1.79443C8.00623 1.79443 10.0316 3.81982 10.0316 6.31006C10.0316 9.63037 6.6781 14.0796 5.51599 15.5073ZM5.51599 3.45459C3.85583 3.45459 2.52771 4.78271 2.52771 6.44287C2.52771 8.10303 3.85583 9.43115 5.51599 9.43115C7.17615 9.43115 8.50427 8.10303 8.50427 6.44287C8.50427 4.78271 7.17615 3.45459 5.51599 3.45459ZM5.51599 8.43506C4.42029 8.43506 3.5238 7.53857 3.5238 6.44287C3.5238 5.34717 4.42029 4.45068 5.51599 4.45068C6.61169 4.45068 7.50818 5.34717 7.50818 6.44287C7.50818 7.53857 6.61169 8.43506 5.51599 8.43506Z" fill="#F8B864"/>
</g>
<defs>
<clipPath id="clip0_1_236">
<rect width="16.81" height="17" fill="white" transform="matrix(1 0 0 -1 -0.000732422 17.3003)"/>
</clipPath>
</defs>
</svg>
