<svg width="37" height="36" viewBox="0 0 37 36" fill="none" xmlns="http://www.w3.org/2000/svg">
<g clip-path="url(#clip0_1_44)">
<path d="M36.595 34.9453C36.4544 29.25 30.6887 24.3281 22.8137 23.0625V20.1094C23.7981 19.125 24.5716 17.5781 25.0637 16.2422C25.7669 15.8906 26.3997 15.1172 26.7512 14.0625C27.2434 12.5859 27.0325 11.25 26.3294 10.6172C26.3294 10.125 26.3997 9.5625 26.3294 9.07031C26.1887 7.66406 26.47 6.89062 26.7512 6.1875C26.9622 5.625 27.2434 4.92188 26.9622 4.14844C26.0481 1.47656 23.3059 0 19.2981 0H18.7356C15.9934 0.140625 15.1497 1.26562 14.5872 2.39062C14.5169 2.53125 14.3762 2.67188 14.3762 2.67188C10.7903 3.02344 10.7903 6.04688 10.8606 8.4375V9.21094C10.8606 9.63281 10.8606 10.125 10.9309 10.5469C10.0169 11.1797 9.80593 12.6562 10.5091 14.2031C10.9309 15.1172 11.4934 15.75 12.1262 16.1016C12.6184 17.5781 13.4622 19.2656 14.5872 20.3203V22.9922C6.57156 24.2578 0.735619 29.1797 0.594994 34.9453V36H36.595V34.9453ZM2.84499 33.8906C3.68874 29.4609 8.89187 25.8047 15.7825 24.9609L16.6966 24.8906V19.1953L16.2747 18.9141C15.4309 18.3516 14.5872 16.875 13.9544 14.9766L13.8137 14.4141L13.1809 14.2734C13.0403 14.2734 12.6887 13.9922 12.4778 13.3594C12.3372 13.0078 12.2669 12.7266 12.1966 12.5156L13.3216 12.7969L13.1106 11.25C13.0403 10.5469 12.97 9.84375 12.97 9.21094V8.36719C12.8997 5.55469 13.0403 4.92188 14.5872 4.78125C15.7825 4.71094 16.2044 3.86719 16.4856 3.375C16.7669 2.74219 17.0481 2.17969 18.8059 2.10938H19.2981C21.0559 2.10938 24.1497 2.46094 24.9231 4.85156C24.9231 4.92188 24.8528 5.20312 24.7825 5.41406C24.4309 6.1875 24.0091 7.38281 24.22 9.35156C24.2903 9.70312 24.22 10.2656 24.1497 10.7578L23.9387 12.4453L24.9231 12.375C24.9231 12.5859 24.8528 12.9375 24.7122 13.3594C24.5012 13.9922 24.22 14.2734 24.22 14.3438H23.4466L23.2356 15.0469C22.6028 16.875 21.8294 18.2109 21.0559 18.7734L20.6341 19.125V24.8906L21.6184 25.0312C28.3684 25.875 33.5716 29.5312 34.345 33.8906H2.84499Z" fill="white"/>
</g>
<defs>
<clipPath id="clip0_1_44">
<rect width="35.81" height="36" fill="white" transform="matrix(1 0 0 -1 0.589996 36)"/>
</clipPath>
</defs>
</svg>
