<svg width="17" height="18" viewBox="0 0 17 18" fill="none" xmlns="http://www.w3.org/2000/svg">
<g clip-path="url(#clip0_1_228)">
<path d="M9.50037 0.300293H1.53162C0.701538 0.300293 0.00427246 0.964355 0.00427246 1.79443V15.8062C0.00427246 16.6362 0.701538 17.3003 1.53162 17.3003H9.50037C10.3304 17.3003 11.0277 16.6362 11.0277 15.8062V1.79443C11.0277 0.964355 10.3304 0.300293 9.50037 0.300293ZM1.53162 1.29639H9.50037C9.79919 1.29639 10.0316 1.52881 10.0316 1.79443V3.28857H1.00037V1.79443C1.00037 1.52881 1.23279 1.29639 1.53162 1.29639ZM10.0316 4.28467V12.2866H1.00037V4.28467H10.0316ZM9.50037 16.3042H1.53162C1.23279 16.3042 1.00037 16.0718 1.00037 15.8062V13.3159H10.0316V15.8062C10.0316 16.0718 9.79919 16.3042 9.50037 16.3042ZM6.01404 14.8101C6.01404 15.0757 5.78162 15.3081 5.51599 15.3081C5.25037 15.3081 5.01794 15.0757 5.01794 14.8101C5.01794 14.5112 5.25037 14.312 5.51599 14.312C5.78162 14.312 6.01404 14.5112 6.01404 14.8101Z" fill="#F8B864"/>
</g>
<defs>
<clipPath id="clip0_1_228">
<rect width="16.81" height="17" fill="white" transform="matrix(1 0 0 -1 -0.000732422 17.3003)"/>
</clipPath>
</defs>
</svg>
