<svg width="16" height="16" viewBox="0 0 16 16" fill="none" xmlns="http://www.w3.org/2000/svg">
<path d="M14.5086 4.34309C14.5086 4.34309 14.6714 4.62215 14.9971 5.18028C15.3229 5.73841 15.4857 6.67837 15.4857 8.00017C15.4857 9.32198 15.16 10.541 14.5086 11.6573C13.8572 12.7735 12.9733 13.6574 11.8571 14.3088C10.7408 14.9602 9.52179 15.2859 8.19999 15.2859C7.49798 15.2859 6.80862 15.1847 6.13191 14.9823C6.50505 14.3941 6.7517 13.8755 6.87187 13.4265C6.92878 13.2115 7.09954 12.5443 7.38414 11.4248C7.51063 11.6715 7.74147 11.8849 8.07666 12.0652C8.41186 12.2454 8.77235 12.3356 9.15814 12.3356C9.92339 12.3356 10.6064 12.1189 11.2072 11.6857C11.8081 11.2525 12.2729 10.6564 12.6018 9.8975C12.9306 9.13857 13.0951 8.28477 13.0951 7.33611C13.0951 6.61513 12.9069 5.93842 12.5306 5.30598C12.1543 4.67354 11.6088 4.1581 10.8942 3.75966C10.1795 3.36122 9.37317 3.162 8.4751 3.162C7.81104 3.162 7.19125 3.25371 6.61573 3.43712C6.04021 3.62052 5.55165 3.86401 5.15005 4.16759C4.74845 4.47116 4.40377 4.82058 4.11601 5.21585C3.82825 5.61113 3.61638 6.02064 3.4804 6.44437C3.34443 6.86811 3.27644 7.29184 3.27644 7.71558C3.27644 8.37331 3.40293 8.952 3.65591 9.45163C3.90888 9.95125 4.27886 10.3023 4.76584 10.5046C4.95557 10.5805 5.07573 10.5173 5.12633 10.3149C5.13898 10.2706 5.16428 10.1726 5.20222 10.0208C5.24017 9.86904 5.26547 9.77417 5.27812 9.73622C5.31606 9.59076 5.28128 9.45479 5.17376 9.3283C4.85122 8.94251 4.68995 8.46502 4.68995 7.89582C4.68995 6.94084 5.0204 6.12024 5.6813 5.43405C6.3422 4.74785 7.20706 4.40475 8.27588 4.40475C9.23087 4.40475 9.97557 4.66405 10.51 5.18265C11.0444 5.70125 11.3116 6.3748 11.3116 7.2033C11.3116 8.27845 11.095 9.19232 10.6618 9.94493C10.2285 10.6975 9.67358 11.0738 8.99687 11.0738C8.61108 11.0738 8.30118 10.9363 8.06718 10.6612C7.83317 10.3861 7.76044 10.0556 7.84899 9.66982C7.89958 9.44846 7.98338 9.1528 8.10038 8.78282C8.21738 8.41284 8.31225 8.08713 8.38498 7.8057C8.45771 7.52426 8.49408 7.28552 8.49408 7.08946C8.49408 6.77324 8.4087 6.51078 8.23794 6.30207C8.06718 6.09337 7.82369 5.98901 7.50747 5.98901C7.11536 5.98901 6.78332 6.16926 6.51137 6.52975C6.23943 6.89024 6.10345 7.33927 6.10345 7.87685C6.10345 8.33853 6.18251 8.72432 6.34062 9.03421L5.40144 12.9996C5.29393 13.4423 5.25282 14.002 5.27812 14.6787C3.97529 14.1032 2.92227 13.2146 2.11908 12.013C1.31588 10.8114 0.914276 9.47376 0.914276 8.00017C0.914276 6.67837 1.23998 5.45934 1.8914 4.34309C2.54281 3.22683 3.42665 2.34299 4.5429 1.69158C5.65916 1.04017 6.87819 0.71446 8.19999 0.71446C9.52179 0.71446 10.7408 1.04017 11.8571 1.69158C12.9733 2.34299 13.8572 3.22683 14.5086 4.34309Z" fill="#F8B864"/>
</svg>
