<svg width="37" height="36" viewBox="0 0 37 36" fill="none" xmlns="http://www.w3.org/2000/svg">
<g clip-path="url(#clip0_1_38)">
<path d="M18.595 0C8.68094 0 0.595001 8.08594 0.595001 18C0.595001 27.9141 8.68094 36 18.595 36C28.5091 36 36.595 27.9141 36.595 18C36.595 8.08594 28.5091 0 18.595 0ZM18.595 33.8906C9.80594 33.8906 2.70438 26.7891 2.70438 18C2.70438 9.21094 9.80594 2.10938 18.595 2.10938C27.3841 2.10938 34.4856 9.21094 34.4856 18C34.4856 26.7891 27.3841 33.8906 18.595 33.8906ZM28.1575 19.0547C28.1575 24.3281 23.8684 28.6172 18.595 28.6172C13.3216 28.6172 9.0325 24.3281 9.0325 19.0547C9.0325 18.4922 9.52469 18 10.1575 18C10.72 18 11.2122 18.4922 11.2122 19.0547C11.2122 23.1328 14.5169 26.4375 18.595 26.4375C22.6731 26.4375 25.9778 23.1328 25.9778 19.0547C25.9778 18.4922 26.47 18 27.0325 18C27.6653 18 28.1575 18.4922 28.1575 19.0547ZM10.1575 11.6719C10.1575 10.4766 11.0716 9.5625 12.2669 9.5625C13.3919 9.5625 14.3763 10.4766 14.3763 11.6719C14.3763 12.7969 13.3919 13.7812 12.2669 13.7812C11.0716 13.7812 10.1575 12.7969 10.1575 11.6719ZM22.8138 11.6719C22.8138 10.4766 23.7981 9.5625 24.9231 9.5625C26.1184 9.5625 27.0325 10.4766 27.0325 11.6719C27.0325 12.7969 26.1184 13.7812 24.9231 13.7812C23.7981 13.7812 22.8138 12.7969 22.8138 11.6719Z" fill="white"/>
</g>
<defs>
<clipPath id="clip0_1_38">
<rect width="35.81" height="36" fill="white" transform="matrix(1 0 0 -1 0.589996 36)"/>
</clipPath>
</defs>
</svg>
