<svg width="17" height="18" viewBox="0 0 17 18" fill="none" xmlns="http://www.w3.org/2000/svg">
<g clip-path="url(#clip0_1_272)">
<path d="M12.9842 10.4489C13.0506 10.6481 13.117 10.9137 13.117 11.2457C13.117 11.777 12.8846 12.2086 12.4862 12.4742C12.619 12.7067 12.6854 12.9723 12.6854 13.2379C12.6854 13.8024 12.3866 14.3004 11.9217 14.5328C11.9881 14.7321 12.0213 14.9645 12.0545 15.2301C12.0545 15.6949 11.9217 16.0602 11.6561 16.3258C11.3573 16.5914 10.992 16.7242 10.494 16.7242H4.84946C4.11899 16.7242 3.58774 16.3258 3.2225 16.027C2.99008 15.861 2.79086 15.6949 2.62485 15.6949H0.533051C0.267426 15.6949 0.0350037 15.4957 0.0350037 15.1969C0.0350037 14.9313 0.267426 14.6989 0.533051 14.6989H2.62485C3.12289 14.6989 3.48813 14.9977 3.82016 15.2633C4.15219 15.4957 4.45102 15.7281 4.84946 15.7281H10.494C10.6932 15.7281 10.8592 15.6949 10.9256 15.6285C10.992 15.5289 11.0252 15.4293 11.0252 15.2633C11.0252 14.7985 10.9588 14.7321 9.99594 14.7321H9.89633C9.63071 14.7321 9.39828 14.4996 9.39828 14.234C9.39828 13.9352 9.63071 13.736 9.89633 13.736H11.1581C11.4569 13.736 11.6893 13.5367 11.6893 13.2379C11.6893 12.8063 11.2577 12.7399 10.992 12.7399H10.2284C9.96274 12.7399 9.73032 12.5074 9.73032 12.2418C9.73032 11.943 9.96274 11.7438 10.2284 11.7438H11.6561C11.9881 11.7438 12.1209 11.4781 12.1209 11.2457C12.1209 10.7477 12.1209 10.7477 11.6893 10.7477C11.6229 10.7477 11.5565 10.7477 11.5233 10.7477H10.4276C10.162 10.7477 9.92953 10.5153 9.92953 10.2496C9.92953 9.95081 10.162 9.75159 10.4276 9.75159H11.4237C11.4237 9.75159 11.4237 9.75159 11.4569 9.75159H12.0877C12.3534 9.75159 12.619 9.51917 12.619 9.22034C12.619 8.95471 12.3866 8.72229 12.0877 8.72229H7.60532C7.4725 8.72229 7.33969 8.65588 7.24008 8.55627C7.14047 8.42346 7.10727 8.29065 7.14047 8.12463L7.63852 5.40198C7.70493 5.13635 7.90414 4.33948 7.67172 4.00745C7.63852 3.90784 7.50571 3.80823 7.33969 3.80823C7.14047 3.80823 6.94125 3.97424 6.77524 4.27307L3.52133 9.48596C3.45493 9.65198 3.28891 9.75159 3.12289 9.75159H0.533051C0.267426 9.75159 0.0350037 9.51917 0.0350037 9.22034C0.0350037 8.95471 0.267426 8.72229 0.533051 8.72229H2.82407L5.91196 3.74182C6.41 2.94495 7.00766 2.81213 7.33969 2.81213C7.83774 2.81213 8.30258 3.07776 8.535 3.5094C8.90024 4.10706 8.76743 4.93713 8.63461 5.6012L8.23618 7.7262H12.0877C12.9178 7.7262 13.6151 8.39026 13.6151 9.22034C13.6151 9.71838 13.3495 10.1832 12.9842 10.4489Z" fill="#F8B864"/>
</g>
<defs>
<clipPath id="clip0_1_272">
<rect width="16.81" height="17" fill="white" transform="matrix(1 0 0 -1 0.0299988 17.7203)"/>
</clipPath>
</defs>
</svg>
