<svg width="16" height="14" viewBox="0 0 16 14" fill="none" xmlns="http://www.w3.org/2000/svg">
<path d="M15.373 2.37088C14.9493 2.99068 14.437 3.51876 13.8362 3.95515C13.8425 4.04369 13.8457 4.1765 13.8457 4.35359C13.8457 5.17576 13.7255 5.99635 13.4852 6.81536C13.2448 7.63437 12.8796 8.42018 12.3895 9.17278C11.8993 9.92539 11.3159 10.591 10.6392 11.1697C9.96248 11.7484 9.14664 12.2101 8.19165 12.5548C7.23667 12.8994 6.21527 13.0718 5.12748 13.0718C3.41356 13.0718 1.84511 12.6133 0.422119 11.6962C0.643473 11.7215 0.890125 11.7342 1.16207 11.7342C2.58507 11.7342 3.85311 11.2978 4.9662 10.425C4.30214 10.4124 3.70765 10.2084 3.18272 9.81313C2.6578 9.41785 2.29731 8.91348 2.10125 8.30001C2.30995 8.33164 2.50285 8.34745 2.67993 8.34745C2.95188 8.34745 3.22067 8.31266 3.48629 8.24309C2.77796 8.09763 2.19137 7.74505 1.72653 7.18534C1.26168 6.62563 1.02926 5.9758 1.02926 5.23584V5.19789C1.45932 5.43822 1.921 5.56787 2.41431 5.58684C1.9969 5.30857 1.66486 4.94492 1.41821 4.49588C1.17156 4.04685 1.04824 3.55987 1.04824 3.03495C1.04824 2.4784 1.18737 1.96296 1.46565 1.48863C2.2309 2.43097 3.16217 3.18515 4.25945 3.75119C5.35674 4.31722 6.53149 4.63186 7.78373 4.6951C7.73313 4.45478 7.70783 4.22077 7.70783 3.99309C7.70783 3.14562 8.00666 2.42306 8.60432 1.8254C9.20197 1.22775 9.92454 0.92892 10.772 0.92892C11.6574 0.92892 12.4037 1.25146 13.0108 1.89655C13.7002 1.76374 14.3485 1.51709 14.9556 1.1566C14.7216 1.88391 14.2726 2.44678 13.6085 2.84521C14.1967 2.78197 14.7848 2.62386 15.373 2.37088Z" fill="#F8B864"/>
</svg>
